<?xml version="1.0" encoding="utf-8" ?><svg xmlns="http://www.w3.org/2000/svg" xmlns:xlink="http://www.w3.org/1999/xlink" width="1024" height="1024" viewBox="0 0 1024 1024"><path fill="white" d="M0 0L1024 0L1024 1024L0 1024L0 0Z"/><path d="M332.727 128.149C347.063 127.292 368.163 127.971 383.022 127.97L481.472 127.971L614.241 127.98C636.669 127.982 659.118 127.991 681.543 128.036C697.721 128.069 701.05 135.843 711.587 146.244L742.152 176.849L812.181 246.429C824.046 258.235 835.862 270.091 847.74 281.881C850.191 284.737 853.346 287.483 854.227 291.27C856.331 300.322 855.528 310.605 855.528 319.89L855.533 356.485C862.074 363.704 872.979 374.629 880.157 381.217C898.682 398.221 896.018 401.427 896.024 425.711L896.011 463.347L896.034 521.226C896.038 528.027 897.143 559.456 893.495 564.206C886.8 572.922 873.167 584.811 864.781 592.641L819.329 634.967C819.252 640.222 819.394 645.49 819.391 650.748C819.388 655.983 819.61 662.471 817.286 667.306C813.861 674.433 763.785 723.105 754.41 732.435C751.277 735.553 746.508 740.409 742.176 741.608C734.738 743.668 719.296 742.544 711.204 742.54L663.544 742.511L663.585 819.504C679.034 835.59 695.371 851.209 710.97 867.24C705.593 873.691 688.784 890.259 682.395 896.12C669.637 882.718 655.19 868.974 642.078 855.726L538.829 752.466L496.986 710.664C492.037 705.707 482.336 695.215 477.247 691.177C473.238 691.119 469.393 691.264 465.19 691.176C438.459 690.616 410.626 692.498 384.111 690.379C378.678 689.945 358.744 668.579 353.885 663.688L319.024 628.785C309.239 618.932 308.044 614.983 308.345 601.08C308.499 593.914 308.374 585.844 308.403 578.589C287.291 578.196 265.712 578.815 244.553 578.566C235.433 578.257 223.958 579.213 215.081 578.092C208.784 577.296 196.667 563.937 192.114 559.378L169.176 536.467L146.435 513.752C125.478 492.81 128.005 496.735 128.009 466.96L128.045 425.198L128.017 365.847C128.013 358.92 126.944 328.202 130.401 323.765C136.893 315.434 151.696 301.351 159.783 293.265L219.811 233.426L287.066 166.04L308.113 144.907C315.962 137.019 321.037 129.682 332.727 128.149Z"/><path fill="white" d="M532.436 169.46L677.334 169.409C683.312 174.582 692.161 183.96 697.96 189.756L735.969 227.678L790.66 282.251C798.614 290.26 807.758 298.974 815.301 307.213C815.087 311.48 815.187 315.904 815.219 320.189L694.358 431.835C694.1 445.679 694.44 459.591 694.374 473.442C694.304 488.406 695.834 502.983 686.939 516.041C715.059 542.812 703.534 540.166 744.955 540.061C758.619 558.61 781.748 564.257 801.319 551.08C810.386 544.889 816.634 535.359 818.694 524.574C820.737 513.768 818.33 502.595 812.02 493.589C805.793 484.667 796.293 478.566 785.589 476.615C773.223 474.484 763.497 477.764 753.546 484.806C747.978 489.299 745.627 492.47 742.322 498.752C737.525 498.94 732.215 498.762 727.378 498.7C720.426 490.86 712.578 484.155 705.555 476.36L766.518 420.216C782.996 405.013 799.986 388.88 816.741 374.095C823.885 384.086 845.974 404.497 855.432 414.316L855.476 545.796C840.361 559.501 825.471 573.652 810.53 587.7C801.54 597.039 787.732 606.844 780.99 617.677C777.412 623.426 778.521 643.878 778.535 650.895C762.331 667.996 744.959 684.384 728.645 701.493L670.855 701.46C663.058 701.458 645.584 700.99 638.988 702.362C635.196 703.176 631.734 705.102 629.044 707.894C626.342 710.651 624.469 714.113 623.64 717.883C622.604 722.821 622.95 735.208 622.956 740.868L623.014 779.016C615.148 771.274 607.459 763.336 599.545 755.656L599.527 604.867C599.529 582.127 600.145 556.796 599.343 534.361C595.05 537.428 583.891 548.906 579.702 553.207C573.575 559.497 564.59 567.749 559.022 574.151L559.051 715.188L505.179 661.44C502.422 658.704 495.693 652.007 492.139 651.359C480.851 649.302 466.317 650.074 454.929 650.084L398.011 650.217C381.858 634.348 364.835 617.384 349.01 601.214L348.952 565.107C351.637 561.859 357.672 556.112 360.734 553.064L382.171 531.757C396.266 517.772 413.311 499.699 427.635 486.485C461.338 486.134 495.586 486.468 529.33 486.49C529.092 471.662 529 456.831 529.056 442C529.048 431.792 528.492 413.933 530.643 404.745L460.312 334.486C447.909 322.082 434.46 309.097 422.445 296.417L422.485 169.436L491.613 169.499L491.557 253.469L491.553 281.287C491.553 287.066 490.97 304.279 494.516 308.75C502.155 318.384 512.438 327.877 521.294 336.651L557.908 373.512C566.108 370.486 571.774 370.147 580.539 370.223C604.459 370.428 628.453 369.919 652.353 370.481C656.467 370.577 661.138 371.905 665.012 373.163C669.394 367.641 674.546 362.9 678.792 357.381C710.66 364.73 737.664 335.768 727.589 304.781C724.26 294.447 716.885 285.902 707.148 281.098C698.243 276.669 686.492 275.359 677.008 278.6C669.288 271.206 661.04 262.692 653.454 255.051C654.743 248.558 654.949 242.971 653.514 236.442C651.148 225.94 644.705 216.81 635.603 211.061C626.185 205.248 614.842 203.421 604.075 205.983C593.712 208.438 584.755 214.92 579.183 223.995C573.373 233.672 571.654 245.263 574.407 256.21C580.421 279.697 603.173 291.022 626.086 284.915C633.571 292.737 641.654 300.482 649.397 308.086C648.089 317.121 648.045 320.471 649.895 329.357C638.282 342.789 624.069 356.159 612.064 369.64C592.684 351.454 574.134 331.182 554.894 312.708C547.534 305.642 539.183 297.671 532.383 290.16C532.809 276.811 532.477 261.549 532.479 248.071L532.436 169.46Z"/><path d="M573.392 394.201C588.873 393.746 605.471 394.505 621.158 394.19C631.925 394.554 643.472 393.393 654.116 394.72C663.749 395.921 670.653 406.695 670.508 415.745C670.084 442.128 671.4 468.689 669.942 494.951C669.719 498.972 666.12 503.774 663.479 506.69L663.518 552.523C673.199 563.198 685.281 574.148 695.393 584.906C701.032 583.706 706.101 583.117 711.841 583.835C722.516 585.19 732.214 590.734 738.797 599.246C745.68 608.216 748.626 619.596 746.962 630.779C745.435 641.513 739.684 651.192 730.988 657.668C707.119 675.606 672.622 661.953 666.567 633.084C665.088 626.029 665.738 621.148 666.88 614.126C656.243 603.161 645.493 592.308 634.63 581.567C621.524 568.388 622.781 563.366 622.939 545.367C623.01 537.294 622.964 528.356 622.981 520.25L622.99 512.006L587.107 512.011C581.336 517.315 574.875 524.228 569.242 529.889L530.984 568.355C521.318 577.972 517.594 577.951 504.208 578.274C497.023 578.448 489.631 578.542 482.407 578.528C467.662 624.013 407.102 615.354 402.022 573.486C400.623 562.487 403.716 551.388 410.602 542.697C417.373 534.059 427.359 528.538 438.276 527.398C451.666 525.988 460.818 530.029 470.862 538.267C482.031 538.312 493.506 537.852 504.682 537.473C513.086 529.986 522.724 519.357 531.022 511.246C537.252 505.157 547.624 495.456 552.939 489.091L552.909 437.195C552.901 419.363 548.8 396.469 573.392 394.201Z"/><path fill="white" d="M593.902 435.428C605.51 435.165 617.856 435.29 629.467 435.414L629.475 470.825C618.015 471.264 605.444 470.995 593.904 470.971L593.902 435.428Z"/><path fill="white" d="M234.974 275.298C236.977 276.13 370.121 409.282 381.81 421.6C381.738 439.252 381.779 456.905 381.934 474.556C375.943 481.28 367.329 489.346 360.827 495.826L319.1 537.385C314.886 537.492 310.546 537.499 306.326 537.448C280.203 537.134 253.847 537.97 227.747 537.325C224.36 534.279 220.994 530.899 217.789 527.652C201.585 511.236 184.801 495.191 168.735 478.655C168.295 469.145 168.574 457.888 168.576 448.25L168.563 410.124C188.679 424.96 208.478 441.59 228.823 456.342C228.764 474.847 234.857 489.262 252.229 497.834C261.895 502.484 273.016 503.083 283.125 499.498C293.623 495.797 302.196 488.038 306.923 477.96C311.502 468.195 311.814 456.317 308.044 446.239C304.108 435.704 296.048 427.228 285.723 422.768C274.123 417.683 264.014 418.921 252.6 423.362L168.567 358.772L168.607 341.774L234.974 275.298Z"/><path fill="white" d="M340.912 169.435L382.008 169.505C381.424 189.986 381.981 211.385 381.809 231.962C381.831 255.065 381.741 278.18 381.838 301.283C381.861 306.728 382.403 311.923 385.932 316.368C390.361 321.946 395.76 326.962 400.809 332.008L427.669 358.837C455.973 387.152 485.416 417.723 514.141 445.334C488.908 445.733 463.033 445.481 437.75 445.488L422.464 445.464C422.374 435.28 424.299 411.39 419.462 402.685C416.854 397.991 405.909 387.963 401.449 383.529L374.517 356.662L264.047 246.156L340.912 169.435Z"/></svg>